<svg width="26" height="26" viewBox="0 0 26 26" fill="none" xmlns="http://www.w3.org/2000/svg">
<path d="M13 26C11.2233 26 9.54417 25.6585 7.9625 24.9756C6.38083 24.2927 4.9998 23.361 3.8194 22.1806C2.639 21.0002 1.70733 19.6192 1.0244 18.0375C0.341467 16.4558 0 14.7767 0 13C0 11.2017 0.341467 9.5173 1.0244 7.9469C1.70733 6.3765 2.639 5.00067 3.8194 3.8194C4.9998 2.63813 6.38083 1.70647 7.9625 1.0244C9.54417 0.342333 11.2233 0.000866667 13 0C14.7983 0 16.4831 0.341467 18.0544 1.0244C19.6257 1.70733 21.0011 2.639 22.1806 3.8194C23.3601 4.9998 24.2918 6.37563 24.9756 7.9469C25.6594 9.51817 26.0009 11.2025 26 13C26 14.7767 25.6585 16.4558 24.9756 18.0375C24.2927 19.6192 23.361 21.0006 22.1806 22.1819C21.0002 23.3632 19.6244 24.2948 18.0531 24.9769C16.4818 25.659 14.7975 26 13 26ZM13 23.335C13.5633 22.555 14.0508 21.7425 14.4625 20.8975C14.8742 20.0525 15.21 19.1533 15.47 18.2H10.53C10.79 19.1533 11.1258 20.0525 11.5375 20.8975C11.9492 21.7425 12.4367 22.555 13 23.335ZM9.62 22.815C9.23 22.1 8.88897 21.3577 8.5969 20.5881C8.30483 19.8185 8.06087 19.0225 7.865 18.2H4.03C4.65833 19.2833 5.44397 20.2258 6.3869 21.0275C7.32983 21.8292 8.40753 22.425 9.62 22.815ZM16.38 22.815C17.5933 22.425 18.6715 21.8292 19.6144 21.0275C20.5573 20.2258 21.3425 19.2833 21.97 18.2H18.135C17.94 19.0233 17.6965 19.8198 17.4044 20.5894C17.1123 21.359 16.7709 22.1009 16.38 22.815ZM2.925 15.6H7.345C7.28 15.1667 7.23147 14.739 7.1994 14.3169C7.16733 13.8948 7.15087 13.4559 7.15 13C7.14913 12.5441 7.1656 12.1056 7.1994 11.6844C7.2332 11.2632 7.28173 10.8351 7.345 10.4H2.925C2.81667 10.8333 2.73563 11.2615 2.6819 11.6844C2.62817 12.1073 2.60087 12.5459 2.6 13C2.59913 13.4541 2.62643 13.8931 2.6819 14.3169C2.73737 14.7407 2.8184 15.1684 2.925 15.6ZM9.945 15.6H16.055C16.12 15.1667 16.169 14.739 16.2019 14.3169C16.2348 13.8948 16.2509 13.4559 16.25 13C16.2491 12.5441 16.2327 12.1056 16.2006 11.6844C16.1685 11.2632 16.12 10.8351 16.055 10.4H9.945C9.88 10.8333 9.83147 11.2615 9.7994 11.6844C9.76733 12.1073 9.75086 12.5459 9.75 13C9.74913 13.4541 9.7656 13.8931 9.7994 14.3169C9.8332 14.7407 9.88173 15.1684 9.945 15.6ZM18.655 15.6H23.075C23.1833 15.1667 23.2648 14.739 23.3194 14.3169C23.374 13.8948 23.4009 13.4559 23.4 13C23.3991 12.5441 23.3723 12.1056 23.3194 11.6844C23.2665 11.2632 23.1851 10.8351 23.075 10.4H18.655C18.72 10.8333 18.769 11.2615 18.8019 11.6844C18.8348 12.1073 18.8509 12.5459 18.85 13C18.8491 13.4541 18.8327 13.8931 18.8006 14.3169C18.7685 14.7407 18.72 15.1684 18.655 15.6ZM18.135 7.8H21.97C21.3417 6.71667 20.5565 5.77417 19.6144 4.9725C18.6723 4.17083 17.5942 3.575 16.38 3.185C16.77 3.9 17.1115 4.6423 17.4044 5.4119C17.6973 6.1815 17.9409 6.97753 18.135 7.8ZM10.53 7.8H15.47C15.21 6.84667 14.8742 5.9475 14.4625 5.1025C14.0508 4.2575 13.5633 3.445 13 2.665C12.4367 3.445 11.9492 4.2575 11.5375 5.1025C11.1258 5.9475 10.79 6.84667 10.53 7.8ZM4.03 7.8H7.865C8.06 6.97667 8.30397 6.1802 8.5969 5.4106C8.88983 4.641 9.23086 3.89913 9.62 3.185C8.40666 3.575 7.32853 4.17083 6.3856 4.9725C5.44267 5.77417 4.65747 6.71667 4.03 7.8Z" fill="black"/>
</svg>
