<svg width="26" height="26" viewBox="0 0 26 26" fill="none" xmlns="http://www.w3.org/2000/svg">
<path d="M20.1798 20.4815L20.4722 21.1964L21.0047 20.6369C22.8971 18.6489 24.0625 15.9625 24.0625 13C24.0625 6.88909 19.1109 1.9375 13 1.9375C6.88909 1.9375 1.9375 6.88909 1.9375 13C1.9375 15.9625 3.10292 18.6489 4.99526 20.6369L5.52781 21.1964L5.82021 20.4815C6.71597 18.2913 8.86829 16.75 11.375 16.75H14.625C17.1317 16.75 19.284 18.2913 20.1798 20.4815ZM13 24.0625C15.1064 24.0625 17.0727 23.4749 18.7485 22.4527H19.2206L19.1017 21.8552C18.6853 19.7616 16.8379 18.1875 14.625 18.1875H11.375C9.16206 18.1875 7.31472 19.7616 6.89828 21.8552L6.83099 22.1935L7.12332 22.3765C8.83036 23.4454 10.8414 24.0625 13 24.0625ZM21.8388 21.8388C19.4946 24.183 16.3152 25.5 13 25.5C9.68479 25.5 6.50537 24.183 4.16117 21.8388C1.81696 19.4946 0.5 16.3152 0.5 13C0.5 9.68479 1.81696 6.50537 4.16117 4.16117C6.50537 1.81696 9.68479 0.5 13 0.5C16.3152 0.5 19.4946 1.81696 21.8388 4.16117C24.183 6.50537 25.5 9.68479 25.5 13C25.5 16.3152 24.183 19.4946 21.8388 21.8388ZM11.2101 11.9461C11.6848 12.4208 12.3287 12.6875 13 12.6875C13.6713 12.6875 14.3152 12.4208 14.7899 11.9461C15.2646 11.4714 15.5312 10.8276 15.5312 10.1562C15.5312 9.48492 15.2646 8.84109 14.7899 8.36639C14.3152 7.89169 13.6713 7.625 13 7.625C12.3287 7.625 11.6848 7.89169 11.2101 8.36639C10.7354 8.84109 10.4688 9.48492 10.4688 10.1562C10.4688 10.8276 10.7354 11.4714 11.2101 11.9461ZM10.1937 12.9626C9.44939 12.2183 9.03125 11.2088 9.03125 10.1562C9.03125 9.10367 9.44939 8.0942 10.1937 7.34992C10.938 6.60563 11.9474 6.1875 13 6.1875C14.0526 6.1875 15.062 6.60563 15.8063 7.34992C16.5506 8.0942 16.9688 9.10367 16.9688 10.1562C16.9688 11.2088 16.5506 12.2183 15.8063 12.9626C15.062 13.7069 14.0526 14.125 13 14.125C11.9474 14.125 10.938 13.7069 10.1937 12.9626Z" fill="black" stroke="black"/>
</svg>
